<?xml version="1.0" encoding="UTF-8" standalone="no"?><!DOCTYPE svg PUBLIC "-//W3C//DTD SVG 1.1//EN" "http://www.w3.org/Graphics/SVG/1.1/DTD/svg11.dtd"><svg width="100%" height="100%" viewBox="0 0 4678 4678" version="1.1" xmlns="http://www.w3.org/2000/svg" xmlns:xlink="http://www.w3.org/1999/xlink" xml:space="preserve" xmlns:serif="http://www.serif.com/" style="fill-rule:evenodd;clip-rule:evenodd;stroke-linejoin:round;stroke-miterlimit:1.41421;"><path d="M3469.23,1578.29l1513.33,1051.38l-36.546,2468.96l-906.462,-53.539l-973.197,-667.897l-1406.5,-1024.48l1809.37,-1774.43l0.005,0.006Z" style="fill:url(#_Linear1);"/><path d="M1079.64,-6.098l4450.42,4545.5c208.44,1714.1 -4093.24,-242.172 -4185.21,276.68l-955.73,-117.78l-32.67,-3570.27l723.189,-1134.13" style="fill:url(#_Linear2);"/><path d="M1065.18,-6.098l4392.91,4563.52c204.814,1714.1 -4022.04,-242.173 -4112.41,276.679l-939.106,-117.779l-32.102,-3570.27l690.705,-1152.15" style="fill:url(#_Linear3);"/><g><path d="M1773.33,2647.16l898.492,-840.845c541.292,-546.849 1248.97,-224.136 742.973,344.812l-948.934,850.862l1171.68,949.038c507.531,305.196 -4.919,823.359 -489.812,485.23l-1343.42,-988.846c-144.651,-85.06 -327.956,-227.296 -335.314,-376.599c-7.459,-151.358 162.984,-309.977 304.332,-423.652l0.003,0Z" style="fill:#fff;"/><path d="M1104.85,50.566c28.398,-355.864 -666.364,-441.463 -739.57,0l0,4635.14c148.218,493.793 793.656,251.614 739.57,0l0,-4635.14Z" style="fill:#fff;"/></g><defs><linearGradient id="_Linear1" x1="0" y1="0" x2="1" y2="0" gradientUnits="userSpaceOnUse" gradientTransform="matrix(3226.67,0,0,3226.67,1719.35,3318.64)"><stop offset="0" style="stop-color:#000;stop-opacity:0.14902"/><stop offset="0" style="stop-color:#525252;stop-opacity:0.0980392"/><stop offset="1" style="stop-color:#000;stop-opacity:0"/></linearGradient><linearGradient id="_Linear2" x1="0" y1="0" x2="1" y2="0" gradientUnits="userSpaceOnUse" gradientTransform="matrix(2122.8,0,0,2122.8,-5.19579,2089.21)"><stop offset="0" style="stop-color:#000;stop-opacity:0.14902"/><stop offset="0" style="stop-color:#525252;stop-opacity:0.0980392"/><stop offset="1" style="stop-color:#000;stop-opacity:0"/></linearGradient><linearGradient id="_Linear3" x1="0" y1="0" x2="1" y2="0" gradientUnits="userSpaceOnUse" gradientTransform="matrix(2085.88,0,0,2085.88,19.1186,2107.24)"><stop offset="0" style="stop-color:#000;stop-opacity:0.14902"/><stop offset="0" style="stop-color:#525252;stop-opacity:0.0980392"/><stop offset="1" style="stop-color:#000;stop-opacity:0"/></linearGradient></defs></svg>