<?xml version="1.0" encoding="UTF-8" standalone="no"?><!DOCTYPE svg PUBLIC "-//W3C//DTD SVG 1.1//EN" "http://www.w3.org/Graphics/SVG/1.1/DTD/svg11.dtd"><svg width="100%" height="100%" viewBox="0 0 195 70" version="1.1" xmlns="http://www.w3.org/2000/svg" xmlns:xlink="http://www.w3.org/1999/xlink" xml:space="preserve" xmlns:serif="http://www.serif.com/" style="fill-rule:evenodd;clip-rule:evenodd;stroke-linejoin:round;stroke-miterlimit:1.41421;"><g id="kreww"><path id="w2" d="M183.489,64.146c0.127,-0.297 10.311,-30.755 10.311,-30.755c2.162,-4.833 -6.165,-7.445 -8.669,-1.321l-6.606,20.55l-2.291,8.048c-0.097,-0.4 -0.763,-2.977 -2,-7.731l-6.569,-19.503c-1.505,-5.971 -9.842,-6.318 -12.244,0.15l-5.782,19.103l-1.928,7.166l-2.218,-7.237l-6.715,-21.884c-0.934,1.12 -7.727,1.712 -8.118,0.359l10.428,31.994c2.172,6.881 11.164,6.538 13.272,0.269l5.923,-17.374l1.491,-5.865l7.152,22.873c1.459,6.419 12.014,7.109 14.563,1.158Z" style="fill-rule:nonzero;"/><path id="w1" d="M112.715,64.146c-0.127,-0.297 -10.312,-30.755 -10.312,-30.755c-2.161,-4.833 6.166,-7.445 8.67,-1.321l6.605,20.55l2.291,8.048c0.097,-0.4 0.764,-2.977 2.001,-7.731l6.569,-19.503c1.058,-4.199 5.495,-5.617 8.871,-3.839c1.425,0.751 2.66,2.07 3.373,3.989l5.782,19.103l1.927,7.166l2.219,-7.237l6.714,-21.884c1.198,2.513 7.949,2.766 8.119,0.359l-10.428,31.994c-2.172,6.881 -11.165,6.538 -13.272,0.269l-5.923,-17.374l-1.491,-5.865l-7.152,22.873c-1.459,6.419 -12.014,7.109 -14.563,1.158Z" style="fill-rule:nonzero;"/><path id="e" d="M96.973,49.544l-15.861,3.844l0.279,0.926c0.736,2.448 1.952,4.253 3.65,5.416c1.698,1.164 3.427,1.535 5.188,1.115c2.918,-0.697 5.126,-1.458 5.794,-5.246c1.931,-3.925 8.421,-3.998 7.01,2.859c-0.038,0.182 -1.836,3.673 -2.853,4.68c-2.253,2.233 -4.702,3.954 -7.922,4.723c-4.276,1.022 -8.285,0.355 -12.026,-2c-3.741,-2.354 -6.392,-6.128 -7.953,-11.319c-1.685,-5.604 -1.558,-10.923 0.379,-15.957c1.937,-5.035 5.799,-8.243 11.585,-9.624c3.899,-0.931 7.466,-0.343 10.701,1.764c3.236,2.108 5.491,5.732 7.143,10.778c1.81,5.527 -3.774,7.953 -5.114,8.041Zm-2.875,-5.692l-0.251,-0.969c-0.832,-2.768 -2.007,-4.681 -3.525,-5.74c-1.518,-1.06 -3.17,-1.376 -4.956,-0.949c-1.812,0.432 -3.223,1.59 -4.233,3.474c-1.011,1.884 -1.318,4.384 -0.92,7.5l13.885,-3.316Z" style="fill-rule:nonzero;"/><path id="r" d="M41.851,64.804l0,-34.313c-0.184,-3.259 8.82,-4.272 9.062,0l0,5.202c2.096,-2.434 3.457,-3.846 5.108,-4.725c5.436,-2.892 13.499,-1.018 15.099,1.155c1.619,1.982 1.422,4.277 -3.563,4.418c-3.338,0.094 -2.678,-0.372 -4.906,-0.224c-1.998,0.132 -3.452,0.301 -4.977,0.91c-1.687,0.674 -3.12,1.944 -3.796,3.301c-1.014,2.068 -2.052,3.856 -2.052,6.312l0,17.964c-1.485,4.109 -9.611,2.216 -9.975,0Z" style="fill-rule:nonzero;"/><g id="k"><path d="M15.177,42.275l10.055,-11.026c6.058,-7.171 13.978,-2.939 8.315,4.521l-10.62,11.158l13.113,12.444c5.68,4.002 -0.055,10.797 -5.482,6.363l-15.035,-12.966c-1.619,-1.116 -3.67,-2.981 -3.752,-4.939c-0.084,-1.984 1.824,-4.064 3.406,-5.555Z"/><path d="M9.799,4.518c0.38,-4.55 -8.901,-5.645 -9.879,0l0,59.272c1.98,6.314 10.602,3.217 9.879,0l0,-59.272Z"/></g></g></svg>