<?xml version="1.0" encoding="UTF-8" standalone="no"?><!DOCTYPE svg PUBLIC "-//W3C//DTD SVG 1.1//EN" "http://www.w3.org/Graphics/SVG/1.1/DTD/svg11.dtd"><svg width="100%" height="100%" viewBox="0 0 250 198" version="1.1" xmlns="http://www.w3.org/2000/svg" xmlns:xlink="http://www.w3.org/1999/xlink" xml:space="preserve" xmlns:serif="http://www.serif.com/" style="fill-rule:evenodd;clip-rule:evenodd;stroke-linecap:round;stroke-linejoin:round;stroke-miterlimit:1.5;"><g id="to-do"><path d="M151.957,84.827l-82.69,0c-6.049,-0.608 -11.953,0.927 -17.638,5.709l-43.945,87.823c-3.496,7.242 0.55,10.901 9.391,12.281l201.733,0c7.622,-1.061 9.83,-5.459 8.333,-12.142l-28.737,-65.612" style="fill:none;stroke:#fff;stroke-width:8px;"/><g id="pen"><path d="M159.499,126.188l-9.237,-7.769l80.837,-104.958l9.237,7.769l-80.837,104.958Z" style="fill:#fff;stroke:#fff;stroke-width:0.48px;"/><path d="M131.489,152.752l25.754,-23.481l-9.309,-7.829l-16.445,31.31Z" style="fill:#fff;stroke:#fff;stroke-width:0.48px;"/></g></g><path d="M246.293,14.444c0.928,-1.166 0.735,-2.866 -0.431,-3.794l-5.728,-4.558c-1.166,-0.928 -2.866,-0.735 -3.794,0.431l-3.363,4.226c-0.229,0.216 9.786,7.965 9.714,8.16l3.602,-4.465Z" style="fill:#fff;"/></svg>