<?xml version="1.0" encoding="UTF-8" standalone="no"?><!DOCTYPE svg PUBLIC "-//W3C//DTD SVG 1.1//EN" "http://www.w3.org/Graphics/SVG/1.1/DTD/svg11.dtd"><svg width="100%" height="100%" viewBox="0 0 700 686" version="1.1" xmlns="http://www.w3.org/2000/svg" xmlns:xlink="http://www.w3.org/1999/xlink" xml:space="preserve" xmlns:serif="http://www.serif.com/" style="fill-rule:evenodd;clip-rule:evenodd;stroke-linecap:round;stroke-linejoin:round;stroke-miterlimit:1.5;"><path d="M-1,684c0,0 110.256,-71.425 229.713,-111.696c0,0 13.926,-20.713 12.645,-44.256c0,0 5.303,-19.678 21.075,-18.967c0,0 1.064,4.249 8.43,-63.224c0,0 -33.451,-25.871 -35.827,-86.406c0,0 -19.71,-2.497 -14.752,-48.472c0,0 -0.503,-23.825 -2.108,-29.504c0,0 -5.545,-12.054 10.537,-12.645c0,0 -6.849,-45.88 2.108,-96.944c0,0 -38.512,-118.436 212.854,-153.844c0,0 27.505,-2.382 2.107,18.967c0,0 -28.256,14.094 18.967,31.612c0,0 34.037,31.621 42.15,42.149c0,0 11.968,11.334 12.644,33.719l2.108,126.448c0,0 12.522,0.903 10.537,8.43c0,0 -1.796,22.513 -2.107,42.149c0,0 2.745,23.86 -18.967,42.15c0,0 10.451,23.559 -29.505,84.298l0,61.117c0,0 17.246,3.985 16.86,23.182" style="fill:none;stroke:#000;stroke-width:8px;"/><ellipse cx="596.5" cy="580" rx="92.604" ry="94" style="fill:none;stroke:#000;stroke-width:8px;"/><path d="M549,584.649l26.327,27.351l63.673,-62" style="fill:none;stroke:#000;stroke-width:8px;"/></svg>