<?xml version="1.0" encoding="UTF-8" standalone="no"?><!DOCTYPE svg PUBLIC "-//W3C//DTD SVG 1.1//EN" "http://www.w3.org/Graphics/SVG/1.1/DTD/svg11.dtd"><svg width="100%" height="100%" viewBox="0 0 173 59" version="1.1" xmlns="http://www.w3.org/2000/svg" xmlns:xlink="http://www.w3.org/1999/xlink" xml:space="preserve" xmlns:serif="http://www.serif.com/" style="fill-rule:evenodd;clip-rule:evenodd;stroke-linecap:round;stroke-linejoin:round;stroke-miterlimit:1.5;"><path d="M2.224,43.714l168.713,0.181" style="fill:none;stroke:#2e2e2e;stroke-width:1.5px;"/><path d="M160.56,0.9c8.836,0.588 9.54,7.807 9.54,7.807c3.772,29.173 -0.18,39.882 -0.18,39.882c-1.938,7.721 -7.02,8.229 -7.02,8.229l-151.2,0.422c-5.896,-0.082 -6.66,-1.899 -6.66,-1.899c-6.338,-6.263 -1.98,-46.634 -1.98,-46.634c1.059,-6.433 5.932,-7.805 5.94,-7.807l151.56,0Zm-154.62,47.478c0,0 0.048,2.298 1.44,4.009c1.392,1.711 155.16,0 155.16,0c0,0 1.482,-2.493 1.98,-3.798c0.498,-1.306 -158.58,-0.211 -158.58,-0.211Z" style="fill:none;stroke:#2e2e2e;stroke-width:1.5px;"/><path d="M154.98,34.029l7.56,0" style="fill:none;stroke:#2e2e2e;stroke-width:1.5px;"/><path d="M154.98,36.35l7.56,0" style="fill:none;stroke:#2e2e2e;stroke-width:1.5px;"/></svg>