<?xml version="1.0" encoding="UTF-8" standalone="no"?><!DOCTYPE svg PUBLIC "-//W3C//DTD SVG 1.1//EN" "http://www.w3.org/Graphics/SVG/1.1/DTD/svg11.dtd"><svg width="100%" height="100%" viewBox="0 0 161 43" version="1.1" xmlns="http://www.w3.org/2000/svg" xmlns:xlink="http://www.w3.org/1999/xlink" xml:space="preserve" xmlns:serif="http://www.serif.com/" style="fill-rule:evenodd;clip-rule:evenodd;stroke-linecap:round;stroke-linejoin:round;stroke-miterlimit:1.5;"><g id="kitchen"><path d="M105.741,1.811c2.588,0 4.69,0.684 4.69,4.811l3.778,0c2.716,0.203 5.483,0.57 8.878,2.927l35.731,30.57c0.427,0.508 0.237,0.7 -0.331,0.699l-156.832,0c-0.659,-0.127 -0.839,-0.558 -0.517,-1.305l35.496,-30.34c2.309,-1.775 5.118,-2.308 8.045,-2.551l4.536,0c0,-4.127 2.101,-4.811 4.69,-4.811l51.836,0Z" style="fill:none;stroke:#262626;stroke-width:1.5px;"/><path d="M99.128,27.361c0.018,-0.026 -0.046,4.301 0,4.275l-48.953,0c-1.657,0 -3.003,-0.958 -3.003,-2.137c0,-1.18 1.346,-2.138 3.003,-2.138l48.953,0Zm-46.059,1.71c0.213,0 0.387,0.192 0.387,0.428c0,0.235 -0.174,0.427 -0.387,0.427c-0.214,0 -0.387,-0.192 -0.387,-0.427c0,-0.236 0.173,-0.428 0.387,-0.428Zm7.734,0c0.213,0 0.386,0.192 0.386,0.428c0,0.235 -0.173,0.427 -0.386,0.427c-0.214,0 -0.387,-0.192 -0.387,-0.427c0,-0.236 0.173,-0.428 0.387,-0.428Zm7.733,0c0.214,0 0.387,0.192 0.387,0.428c0,0.235 -0.173,0.427 -0.387,0.427c-0.213,0 -0.386,-0.192 -0.386,-0.427c0,-0.236 0.173,-0.428 0.386,-0.428Zm8.508,0c0.213,0 0.386,0.192 0.386,0.428c0,0.235 -0.173,0.427 -0.386,0.427c-0.214,0 -0.387,-0.192 -0.387,-0.427c0,-0.236 0.173,-0.428 0.387,-0.428Zm14.111,0.855c0.166,0 0.3,-0.096 0.3,-0.214l0,-0.427c0,-0.118 -0.134,-0.214 -0.3,-0.214l-4.923,0c-0.166,0 -0.3,0.096 -0.3,0.214l0,0.427c0,0.118 0.134,0.214 0.3,0.214l4.923,0Z" style="fill:#666;"/><path d="M111.782,28.497c0,-0.553 -0.449,-1.002 -1.002,-1.002l-11.231,0c-0.553,0 -1.002,0.449 -1.002,1.002l0,2.004c0,0.552 0.449,1.001 1.002,1.001l11.231,0c0.553,0 1.002,-0.449 1.002,-1.001l0,-2.004Z" style="fill:#0d0d0d;stroke:#000;stroke-width:0.38px;"/></g></svg>