<?xml version="1.0" encoding="UTF-8" standalone="no"?><!DOCTYPE svg PUBLIC "-//W3C//DTD SVG 1.1//EN" "http://www.w3.org/Graphics/SVG/1.1/DTD/svg11.dtd"><svg width="100%" height="100%" viewBox="0 0 83 154" version="1.1" xmlns="http://www.w3.org/2000/svg" xmlns:xlink="http://www.w3.org/1999/xlink" xml:space="preserve" xmlns:serif="http://www.serif.com/" style="fill-rule:evenodd;clip-rule:evenodd;stroke-linejoin:round;stroke-miterlimit:1.41421;"><path d="M81.359,5.326c0,-1.865 -1.514,-3.38 -3.38,-3.38l-73.184,0c-1.866,0 -3.381,1.515 -3.381,3.38l0,143.46c0,1.866 1.515,3.38 3.381,3.38l73.184,0c1.866,0 3.38,-1.514 3.38,-3.38l0,-143.46Z" style="fill:none;stroke:#000;stroke-width:1.5px;"/><path d="M6.049,29.81c0,-0.639 -0.519,-1.158 -1.159,-1.158c-0.639,0 -1.158,0.519 -1.158,1.158l0,19.048c0,0.639 0.519,1.159 1.158,1.159c0.64,0 1.159,-0.52 1.159,-1.159l0,-19.048Z"/><path d="M6.049,56.88c0,-0.64 -0.519,-1.159 -1.159,-1.159c-0.639,0 -1.158,0.519 -1.158,1.159l0,19.047c0,0.639 0.519,1.159 1.158,1.159c0.64,0 1.159,-0.52 1.159,-1.159l0,-19.047Z"/><path d="M44.288,65.706l0,10.012l-6.574,0l0,-10.012l6.574,0Zm-1.111,6.111l-3.967,0c-0.184,0 -0.334,0.149 -0.334,0.333c0,0.185 0.15,0.334 0.334,0.334l3.967,0c0.184,0 0.334,-0.149 0.334,-0.334c0,-0.184 -0.15,-0.333 -0.334,-0.333Zm0,-1.67l-2.422,0c-0.184,0 -0.334,0.15 -0.334,0.334c0,0.184 0.15,0.334 0.334,0.334l2.422,0c0.184,0 0.334,-0.15 0.334,-0.334c0,-0.184 -0.15,-0.334 -0.334,-0.334Zm0,-2.438l-3.967,0c-0.184,0 -0.334,0.15 -0.334,0.334c0,0.184 0.15,0.334 0.334,0.334l3.967,0c0.184,0 0.334,-0.15 0.334,-0.334c0,-0.184 -0.15,-0.334 -0.334,-0.334Z"/><path d="M1.8,52.2l79.56,0" style="fill:none;stroke:#000;stroke-width:1.5px;stroke-linecap:round;stroke-miterlimit:1.5;"/></svg>