<?xml version="1.0" encoding="UTF-8" standalone="no"?><!DOCTYPE svg PUBLIC "-//W3C//DTD SVG 1.1//EN" "http://www.w3.org/Graphics/SVG/1.1/DTD/svg11.dtd"><svg width="100%" height="100%" viewBox="0 0 195 112" version="1.1" xmlns="http://www.w3.org/2000/svg" xmlns:xlink="http://www.w3.org/1999/xlink" xml:space="preserve" xmlns:serif="http://www.serif.com/" style="fill-rule:evenodd;clip-rule:evenodd;stroke-linecap:round;stroke-linejoin:round;stroke-miterlimit:1.5;"><g id="microwave"><rect id="BASE-COLOR" serif:id="BASE COLOR" x="1.434" y="2.492" width="191.566" height="107.616" style="fill:none;stroke:#000;stroke-width:1.5px;"/><g><ellipse cx="162.808" cy="76.656" rx="9.498" ry="8.863" style="fill:none;stroke:#000;stroke-width:1.5px;stroke-linecap:butt;stroke-miterlimit:1.41421;"/></g><path d="M123.036,17.29c0,-2.895 -2.35,-5.245 -5.245,-5.245l-101.117,0c-2.895,0 -5.246,2.35 -5.246,5.245l0,79.954c0,2.895 2.351,5.246 5.246,5.246l101.117,0c2.895,0 5.245,-2.351 5.245,-5.246l0,-79.954Z" style="fill:none;stroke:#000;stroke-width:1.5px;stroke-linecap:butt;stroke-miterlimit:1.41421;"/><g><path d="M179.769,16.657c0,-0.61 -0.495,-1.105 -1.105,-1.105l-27.424,0c-0.61,0 -1.105,0.495 -1.105,1.105l0,7.193c0,0.61 0.495,1.105 1.105,1.105l27.424,0c0.61,0 1.105,-0.495 1.105,-1.105l0,-7.193Z" style="fill:none;stroke:#000;stroke-width:1.5px;stroke-linecap:butt;stroke-miterlimit:1.41421;"/></g><path d="M135.847,2.492l0,108.138l-1.577,0l0,-33.383c-2.237,-3.177 -12.066,-19.236 0,-41.41l0,-33.345l1.577,0Z"/></g></svg>