<?xml version="1.0" encoding="UTF-8" standalone="no"?><!DOCTYPE svg PUBLIC "-//W3C//DTD SVG 1.1//EN" "http://www.w3.org/Graphics/SVG/1.1/DTD/svg11.dtd"><svg width="100%" height="100%" viewBox="0 0 127 158" version="1.1" xmlns="http://www.w3.org/2000/svg" xmlns:xlink="http://www.w3.org/1999/xlink" xml:space="preserve" xmlns:serif="http://www.serif.com/" style="fill-rule:evenodd;clip-rule:evenodd;stroke-linecap:round;stroke-linejoin:round;stroke-miterlimit:1.5;"><path d="M125.177,6.329c0,-2.578 -2.093,-4.67 -4.671,-4.67l-114.771,0c-2.578,0 -4.671,2.092 -4.671,4.67l0,145.333c0,2.578 2.093,4.671 4.671,4.671l114.771,0c2.578,0 4.671,-2.093 4.671,-4.671l0,-145.333Z" style="fill:none;stroke:#000;stroke-width:1.5px;"/><rect x="0.733" y="40.595" width="124.444" height="1.072"/><path d="M62.058,58.813c21.778,0 39.459,18.087 39.459,40.366c0,22.278 -17.681,40.365 -39.459,40.365c-21.777,0 -39.458,-18.087 -39.458,-40.365c0,-22.279 17.681,-40.366 39.458,-40.366Zm31.777,49.661c-5.293,-3.833 -5.184,-13.11 0.814,-17.965c0.391,-0.317 -0.154,-0.887 -0.244,-1.192c-4.267,-14.342 -17.28,-24.788 -32.653,-24.788c-18.838,0 -34.132,15.686 -34.132,35.007c0,19.321 15.294,35.007 34.132,35.007c15.136,0 27.984,-10.127 32.449,-24.129c0.075,-0.233 0.394,-0.628 0.493,-0.971c-0.305,-0.325 -0.59,-0.648 -0.859,-0.969Zm0.859,0.969c0.251,0.268 0.514,0.538 0.791,0.809c-6.552,-6.566 -7.07,-13.441 0.284,-20.718c0,0 -10.939,8.166 -1.934,18.94c0.22,0.159 0.45,0.309 0.688,0.449c0.209,0.122 0.231,0.311 0.171,0.52Z" style="stroke:#000;stroke-width:0.38px;"/><path d="M49.865,19.343c0,-1.874 -1.521,-3.396 -3.396,-3.396l-26.92,0c-1.874,0 -3.395,1.522 -3.395,3.396l0,4.282c0,1.874 1.521,3.396 3.395,3.396l26.92,0c1.875,0 3.396,-1.522 3.396,-3.396l0,-4.282Z" style="fill:none;stroke:#000;stroke-width:1.5px;stroke-linecap:butt;stroke-miterlimit:1.41421;"/><ellipse cx="64.389" cy="21.841" rx="4.124" ry="4.108"/><ellipse cx="78.961" cy="22.556" rx="1.482" ry="1.25"/><ellipse cx="85.475" cy="22.556" rx="1.482" ry="1.25"/><path d="M115.135,17.019l0,10.359l-17.573,0l0,-10.359l17.573,0Zm-2.459,3.215l-1.537,0c-0.17,0 -0.307,0.138 -0.307,0.307l0,3.672c0,0.17 0.137,0.307 0.307,0.307l1.537,0c0.17,0 0.307,-0.137 0.307,-0.307l0,-3.672c0,-0.169 -0.137,-0.307 -0.307,-0.307Zm-2.869,0l-1.537,0c-0.17,0 -0.307,0.138 -0.307,0.307l0,3.672c0,0.17 0.137,0.307 0.307,0.307l1.537,0c0.17,0 0.307,-0.137 0.307,-0.307l0,-3.672c0,-0.169 -0.137,-0.307 -0.307,-0.307Zm-5.021,0l-1.537,0c-0.169,0 -0.307,0.138 -0.307,0.307l0,3.672c0,0.17 0.138,0.307 0.307,0.307l1.537,0c0.17,0 0.308,-0.137 0.308,-0.307l0,-3.672c0,-0.169 -0.138,-0.307 -0.308,-0.307Zm-3.228,0l-1.536,0c-0.17,0 -0.308,0.138 -0.308,0.307l0,3.672c0,0.17 0.138,0.307 0.308,0.307l1.536,0c0.17,0 0.308,-0.137 0.308,-0.307l0,-3.672c0,-0.169 -0.138,-0.307 -0.308,-0.307Z"/></svg>