<?xml version="1.0" encoding="UTF-8" standalone="no"?><!DOCTYPE svg PUBLIC "-//W3C//DTD SVG 1.1//EN" "http://www.w3.org/Graphics/SVG/1.1/DTD/svg11.dtd"><svg width="100%" height="100%" viewBox="0 0 260 260" version="1.1" xmlns="http://www.w3.org/2000/svg" xmlns:xlink="http://www.w3.org/1999/xlink" xml:space="preserve" xmlns:serif="http://www.serif.com/" style="fill-rule:evenodd;clip-rule:evenodd;stroke-linecap:round;stroke-linejoin:round;stroke-miterlimit:1.5;"><g><path d="M113.682,87.213l-0.155,0c-2.415,0 -4.377,-1.961 -4.377,-4.377l0,-8.754c0,-2.415 1.961,-4.377 4.377,-4.377l4.219,0c-2.84,-7.526 -12.597,-26.271 -35.094,-8.99c0,0 12.897,-39.998 48.738,-40.694l44.479,9.937l-0.473,13.249l-24.204,4.931c0.398,4.001 3.784,14.594 20.892,23.46c0,0 -23.045,-2.179 -26.541,-19.385c-3.329,3.639 -7.088,9.72 -5.242,17.492l2.8,0c2.416,0.001 4.377,1.962 4.377,4.377l0,8.754c0,2.416 -1.961,4.377 -4.377,4.377l-0.016,0l9.833,34.711c15.084,40.358 23.008,35.568 26.678,105.943c0.029,0.559 0.021,1.122 0.061,1.682c0.34,4.778 -2.587,10.351 -4.321,9.553l-91.662,0c-1.192,0.21 -5.276,-3.957 -4.169,-7.628c0.219,-0.725 -0.332,-1.393 -0.309,-1.961c3.344,-80.573 11.029,-74.358 21.688,-107.589l12.798,-34.711l29.403,0l-29.403,0Z" style="fill:none;stroke:#000;stroke-width:2.03px;"/></g></svg>