<?xml version="1.0" encoding="UTF-8" standalone="no"?><!DOCTYPE svg PUBLIC "-//W3C//DTD SVG 1.1//EN" "http://www.w3.org/Graphics/SVG/1.1/DTD/svg11.dtd"><svg width="100%" height="100%" viewBox="0 0 117 185" version="1.1" xmlns="http://www.w3.org/2000/svg" xmlns:xlink="http://www.w3.org/1999/xlink" xml:space="preserve" xmlns:serif="http://www.serif.com/" style="fill-rule:evenodd;clip-rule:evenodd;stroke-linecap:round;stroke-linejoin:round;stroke-miterlimit:1.5;"><path d="M31.672,20.791c0.431,7.669 58.339,6.289 56.648,-1.08l0.54,32.475c0,9.757 -7.55,17.764 -17.121,18.492l0,10.344l14.835,0c15.565,0 28.202,12.637 28.202,28.202l0,65.172c-0.586,11.223 -18.14,11.373 -18.14,0.568c0,-0.32 -75.607,-0.04 -75.605,0.593c0.037,9.777 -19.058,10.105 -19.066,-1.161l0,-65.172c0,-15.565 12.638,-28.202 28.203,-28.202l20.524,0l0,-10.291l-0.835,0c-10.236,0 -18.545,-8.309 -18.545,-18.545l0.36,-31.395Z" style="fill:none;stroke:#0d0d0d;stroke-width:1.5px;"/><path d="M62.182,50.532c-7.738,12.277 -15.999,0.011 -16.007,0l16.007,0Zm4.955,-10.387c-0.678,-1.084 -4.245,-9.073 -6.983,0.478c-2.449,-3.756 5.381,-12.438 6.983,-0.478Zm-25.535,-0.955c0.649,-1.084 4.065,-9.073 6.687,0.477c2.345,-3.756 -5.154,-12.438 -6.687,-0.477Z" style="fill:none;stroke:#0d0d0d;stroke-width:1.5px;stroke-linecap:butt;stroke-miterlimit:1.41421;"/><path d="M88.098,19.79c0,-8.416 -6.148,-17.368 -13.72,-17.368c-8.469,-2.107 -17.138,-1.705 -29.346,0c-7.573,0 -13.72,8.952 -13.72,17.368c0,8.417 56.786,8.417 56.786,0Z" style="fill:none;stroke:#0d0d0d;stroke-width:1.5px;"/><path d="M26.96,121.804l0,-40.401l14.483,0l0,40.398l34.841,0l0,-40.398l14.482,0l0,40.398c3.369,0.021 6.098,2.706 6.098,6.01l0,47.313c-0.473,0.329 -76.295,0.461 -75.843,0l0,-47.313c0,-3.252 2.644,-5.904 5.939,-6.007Z" style="fill:none;stroke:#0d0d0d;stroke-width:1.5px;"/></svg>