<?xml version="1.0" encoding="UTF-8" standalone="no"?><!DOCTYPE svg PUBLIC "-//W3C//DTD SVG 1.1//EN" "http://www.w3.org/Graphics/SVG/1.1/DTD/svg11.dtd"><svg width="100%" height="100%" viewBox="0 0 143 164" version="1.1" xmlns="http://www.w3.org/2000/svg" xmlns:xlink="http://www.w3.org/1999/xlink" xml:space="preserve" xmlns:serif="http://www.serif.com/" style="fill-rule:evenodd;clip-rule:evenodd;stroke-linecap:round;stroke-linejoin:round;stroke-miterlimit:1.5;"><g><path d="M133.975,20.755l3.202,0l0,8.686c0.05,9.883 -3.471,14.825 -14.242,14.2l-23.225,0l-31.438,0l-0.573,37.697" style="fill:none;stroke:#000;stroke-width:1.5px;"/><path d="M134.749,16.435l5.903,0l0.305,13.186c-0.213,6.428 -1.449,16.649 -13.346,17.8l-23.225,0l-32.518,0l-0.029,34.277" style="fill:none;stroke:#000;stroke-width:1.5px;"/><path d="M133.73,8.164c0,-3.447 -2.799,-6.245 -6.246,-6.245l-118.556,0c-3.447,0 -6.245,2.798 -6.245,6.245l0,22.572c0,3.447 2.798,6.246 6.245,6.246l118.556,0c3.447,0 6.246,-2.799 6.246,-6.246l0,-22.572Z" style="fill:none;stroke:#000;stroke-width:1.5px;stroke-linecap:butt;stroke-miterlimit:1.41421;"/><path d="M76.201,161.494c1.888,-0.017 3.412,-1.563 3.402,-3.451l-0.408,-72.994c-0.011,-1.888 -1.552,-3.407 -3.44,-3.391l-12.364,0.11c-1.889,0.016 -3.413,1.563 -3.402,3.451l0.407,72.993c0.011,1.888 1.552,3.408 3.441,3.391l12.364,-0.109Z" style="fill:none;stroke:#000;stroke-width:1.5px;stroke-linecap:butt;stroke-miterlimit:1.41421;"/></g></svg>