<?xml version="1.0" encoding="UTF-8" standalone="no"?><!DOCTYPE svg PUBLIC "-//W3C//DTD SVG 1.1//EN" "http://www.w3.org/Graphics/SVG/1.1/DTD/svg11.dtd"><svg width="100%" height="100%" viewBox="0 0 191 184" version="1.1" xmlns="http://www.w3.org/2000/svg" xmlns:xlink="http://www.w3.org/1999/xlink" xml:space="preserve" xmlns:serif="http://www.serif.com/" style="fill-rule:evenodd;clip-rule:evenodd;stroke-linejoin:round;stroke-miterlimit:1.41421;"><g><path d="M95.22,0.891c51.957,0 94.14,40.412 94.14,90.189c0,49.777 -42.183,90.189 -94.14,90.189c-51.957,0 -94.14,-40.412 -94.14,-90.189c0,-49.777 42.183,-90.189 94.14,-90.189Zm55.094,38.167c-0.205,0.501 -0.496,0.98 -0.875,1.418l-98.962,114.154c12.702,8.448 28.124,13.4 44.743,13.4c43.377,0 78.594,-33.738 78.594,-75.295c0,-21.006 -8.998,-40.014 -23.5,-53.677Zm-16.68,-12.015c-11.361,-6.115 -24.466,-9.604 -38.414,-9.604c-43.377,0 -78.594,33.739 -78.594,75.296c0,18.325 6.848,35.13 18.224,48.192l98.311,-113.403c0.149,-0.172 0.307,-0.332 0.473,-0.481Z" style="fill:none;stroke:#000;stroke-width:1.5px;"/><path d="M106.419,90.265c0.852,1.673 1.459,3.072 2.167,4.914l5.728,-5.341l21.272,19.19l-20.767,-12.217l-4.476,5.245c1.851,5.001 1.621,8.238 1.46,9.151l6.893,-2.186l17.461,17.221l-17.784,-10.807l-6.074,2.336c-2.021,21.295 -16.104,20.502 -24.628,8.567l-6.009,-0.55l-10.248,17.728l8.443,-23.223l26.562,-30.028Zm-31.276,4.227c-0.722,-1.654 -5.173,-3.109 -4.858,-3.23l-10.236,20.086l8.97,-27.608l5.799,1.599c0.681,-3.918 1.079,-6.925 2.926,-9.464c-3.237,-1.266 -5.854,-3.879 -6.884,-7.326c-0.939,-3.143 -0.37,-6.356 1.295,-8.941c-6.443,-6.515 -6.073,-15.627 -6.073,-15.627l7.52,13.817c1.42,-1.445 3.257,-2.552 5.402,-3.131c2.075,-0.56 4.179,-0.556 6.131,-0.083l0.29,-15.979c0,0 4.538,7.91 1.824,16.699c2.993,1.335 5.384,3.848 6.357,7.105c0.995,3.331 0.297,6.741 -1.605,9.398c0.659,0.258 0.958,0.93 1.615,1.283l-18.473,21.402Zm52.792,-3.579l-14.872,-7.886l2.337,-3.401l12.535,11.287Z" style="fill:none;stroke:#000;stroke-width:1px;"/></g></svg>