<?xml version="1.0" encoding="UTF-8" standalone="no"?><!DOCTYPE svg PUBLIC "-//W3C//DTD SVG 1.1//EN" "http://www.w3.org/Graphics/SVG/1.1/DTD/svg11.dtd"><svg width="100%" height="100%" viewBox="0 0 93 150" version="1.1" xmlns="http://www.w3.org/2000/svg" xmlns:xlink="http://www.w3.org/1999/xlink" xml:space="preserve" xmlns:serif="http://www.serif.com/" style="fill-rule:evenodd;clip-rule:evenodd;stroke-linejoin:round;stroke-miterlimit:1.41421;"><path d="M32.694,70.38l25.452,46.185c14.328,40.36 -63.544,41.834 -49.47,-0.876l24.018,-45.309Z" style="fill:none;stroke:#000;stroke-width:2px;"/><path d="M18.303,114.83c0,0 -8.915,8.927 -0.09,18.994c0,0 -3.608,-7.98 0.09,-18.994Z" style="fill:none;stroke:#000;stroke-width:2px;stroke-linecap:round;stroke-miterlimit:1.5;"/><g><path d="M71.683,15.42l16.085,31.194c9.055,27.26 -40.157,28.255 -31.263,-0.592l15.178,-30.602Z" style="fill:none;stroke:#000;stroke-width:2px;"/></g><path d="M62.589,45.442c0,0 -5.634,6.03 -0.057,12.829c0,0 -2.28,-5.39 0.057,-12.829Z" style="fill:none;stroke:#000;stroke-width:2px;stroke-linecap:round;stroke-miterlimit:1.5;"/><path d="M13.279,3.42l8.21,16.059c4.622,14.034 -20.496,14.546 -15.957,-0.305l7.747,-15.754Z" style="fill:none;stroke:#000;stroke-width:2px;"/></svg>